<?xml version="1.0" standalone="no"?>
<!DOCTYPE svg PUBLIC "-//W3C//DTD SVG 1.0//EN" "http://www.w3.org/TR/2001/REC-SVG-20010904/DTD/svg10.dtd">
<svg xmlns="http://www.w3.org/2000/svg" xmlns:xlink="http://www.w3.org/1999/xlink" id="body_1" width="76" height="76">

<g transform="matrix(0.7916667 0 0 0.7916667 0 0)">
	<g transform="matrix(4 0 0 4 0 0)">
        <path d="M18.002 2.997L5.999 2.997C 4.342704 3.0019445 3.0013936 4.3437023 2.997 6L2.997 6L2.997 18.001999C 3.0030367 19.657288 4.343709 20.997513 5.999 21.002998L5.999 21.002998L18.002 21.002998C 19.656902 20.996965 20.996967 19.656898 21.003 18.001999L21.003 18.001999L21.003 6C 20.998062 4.3443174 19.657679 3.0030396 18.002 2.997zM16.362001 15.644C 16.210001 16.004 15.9730015 16.324 15.669002 16.571C 15.30951 16.850185 14.900256 17.058546 14.463001 17.185C 13.9730015 17.335999 13.389001 17.414 12.713001 17.414L12.713001 17.414L7.888 17.414L7.888 6.909L12.991 6.909C 13.934 6.909 14.691 7.1219997 15.258 7.555C 15.827001 7.9909997 16.112 8.637 16.112 9.513C 16.112 10.040999 15.981999 10.495999 15.723 10.87C 15.464 11.243 15.092999 11.533999 14.6119995 11.738L14.6119995 11.738L14.6119995 11.772C 15.254 11.907001 15.749 12.21 16.076 12.684C 16.403 13.157 16.569 13.753 16.569 14.473C 16.569 14.877999 16.491001 15.261 16.344 15.62L16.344 15.62L16.364 15.641L16.364 15.644zM14.278002 13.055C 13.969002 12.773001 13.539001 12.636001 12.981002 12.636001L12.981002 12.636001L9.737 12.636001L9.737 15.912001L12.990001 15.912001C 13.544001 15.912001 13.981001 15.768001 14.288001 15.477C 14.596001 15.188001 14.752001 14.776 14.752001 14.248C 14.747001 13.7300005 14.596001 13.329 14.288001 13.055L14.288001 13.055L14.274001 13.055L14.278001 13.055zM13.827002 10.936001C 14.126001 10.685 14.271002 10.323001 14.271002 9.852001C 14.271002 9.326001 14.140002 8.950001 13.8740015 8.736001C 13.610002 8.522001 13.228002 8.410001 12.728002 8.410001L12.728002 8.410001L9.727 8.410001L9.727 11.308001L12.728001 11.308001C 13.1640005 11.309001 13.538001 11.181001 13.827001 10.936001z" stroke="none" fill="#000000" fill-rule="nonzero" />
	</g>
</g>
</svg>