<svg width="495" height="343" viewBox="0 0 495 343" fill="none" xmlns="http://www.w3.org/2000/svg">
<g clip-path="url(#clip0_113_144)">
<rect width="1380" height="2400" transform="translate(-118 -240)" fill="white"/>
<g clip-path="url(#clip1_113_144)">
<path d="M444.613 38H42.0699C40.6149 38 39.1742 38.2887 37.8299 38.8495C36.4857 39.4104 35.2642 40.2324 34.2354 41.2687C33.2066 42.305 32.3904 43.5353 31.8336 44.8893C31.2768 46.2434 30.9902 47.6946 30.9902 49.1601V275.079C30.9902 276.544 31.2768 277.996 31.8336 279.35C32.3904 280.704 33.2066 281.934 34.2354 282.97C35.2642 284.007 36.4857 284.829 37.8299 285.39C39.1742 285.95 40.6149 286.239 42.0699 286.239H444.613C447.552 286.239 450.37 285.063 452.448 282.97C454.525 280.877 455.693 278.039 455.693 275.079V49.1601C455.693 46.2003 454.525 43.3617 452.448 41.2687C450.37 39.1758 447.552 38 444.613 38V38Z" fill="#3F3D56"/>
<path d="M440.838 57.7231H45.845V282.158H440.838V57.7231Z" fill="white"/>
<path d="M243.004 51.6021C245.241 51.6021 247.055 49.7752 247.055 47.5215C247.055 45.2678 245.241 43.4409 243.004 43.4409C240.766 43.4409 238.953 45.2678 238.953 47.5215C238.953 49.7752 240.766 51.6021 243.004 51.6021Z" fill="white"/>
<path d="M327.877 282.159H45.845V57.7234L327.877 282.159Z" fill="#F2F2F2"/>
<path d="M107.649 265.364C128.619 265.364 145.617 248.241 145.617 227.12C145.617 205.999 128.619 188.876 107.649 188.876C86.6802 188.876 69.6814 205.999 69.6814 227.12C69.6814 248.241 86.6802 265.364 107.649 265.364Z" fill="#3CCF91"/>
<path d="M116.102 255.864C106.761 255.864 97.6295 253.074 89.8628 247.847C82.0961 242.619 76.0427 235.19 72.4681 226.497C68.8935 217.805 67.9582 208.24 69.7806 199.012C71.6029 189.784 76.101 181.307 82.706 174.654C89.311 168.001 97.7263 163.471 106.888 161.635C116.049 159.799 125.545 160.741 134.175 164.342C142.805 167.943 150.181 174.04 155.371 181.863C160.56 189.686 163.33 198.884 163.33 208.292C163.33 214.54 162.108 220.726 159.735 226.497C157.361 232.269 153.883 237.513 149.497 241.931C145.111 246.348 139.905 249.852 134.175 252.243C128.445 254.633 122.304 255.864 116.102 255.864ZM116.102 161.343C106.883 161.343 97.8709 164.096 90.2058 169.255C82.5406 174.414 76.5663 181.747 73.0385 190.325C69.5106 198.904 68.5875 208.344 70.386 217.452C72.1845 226.559 76.6238 234.925 83.1424 241.491C89.6611 248.057 97.9664 252.528 107.008 254.34C116.05 256.151 125.422 255.222 133.939 251.668C142.456 248.115 149.735 242.097 154.857 234.376C159.979 226.655 162.713 217.578 162.713 208.292C162.713 202.127 161.507 196.022 159.165 190.326C156.822 184.629 153.389 179.454 149.061 175.094C144.732 170.734 139.594 167.276 133.939 164.917C128.284 162.557 122.223 161.343 116.101 161.343L116.102 161.343Z" fill="#3F3D56"/>
<path d="M385.197 252.806H348.301V260.571H385.197V252.806Z" fill="#3F3D56"/>
<path d="M420.105 210.734H313.393V214.062H420.105V210.734Z" fill="#3F3D56"/>
<path d="M420.105 223.81H313.393V227.138H420.105V223.81Z" fill="#3F3D56"/>
<path d="M420.105 236.886H313.393V240.214H420.105V236.886Z" fill="#3F3D56"/>
<path d="M412.892 71.1546H397.473V86.6861H412.892V71.1546Z" fill="#3CCF91"/>
<path d="M420.051 93.8972H401.328V75.0374H420.051V93.8972ZM402.142 93.0772H419.237V75.8575H402.142L402.142 93.0772Z" fill="#CCCCCC"/>
<path d="M466.783 278.078H428.234V275.28C428.234 275.207 428.22 275.135 428.193 275.068C428.165 275.001 428.124 274.939 428.073 274.888C428.022 274.836 427.961 274.796 427.895 274.768C427.828 274.74 427.756 274.725 427.684 274.725H414.467C414.395 274.725 414.323 274.74 414.256 274.768C414.189 274.796 414.129 274.836 414.078 274.888C414.026 274.939 413.986 275.001 413.958 275.068C413.931 275.135 413.916 275.207 413.916 275.28V278.078H405.656V275.28C405.656 275.207 405.642 275.135 405.614 275.068C405.586 275.001 405.546 274.939 405.495 274.888C405.444 274.836 405.383 274.796 405.316 274.768C405.249 274.74 405.178 274.725 405.105 274.725H391.889C391.816 274.725 391.745 274.74 391.678 274.768C391.611 274.796 391.55 274.836 391.499 274.888C391.448 274.939 391.407 275.001 391.38 275.068C391.352 275.135 391.338 275.207 391.338 275.28V278.078H383.077V275.28C383.077 275.207 383.063 275.135 383.035 275.068C383.008 275.001 382.967 274.939 382.916 274.888C382.865 274.836 382.804 274.796 382.737 274.768C382.671 274.74 382.599 274.725 382.527 274.725H369.31C369.238 274.725 369.166 274.74 369.099 274.768C369.032 274.796 368.972 274.836 368.921 274.888C368.869 274.939 368.829 275.001 368.801 275.068C368.773 275.135 368.759 275.207 368.759 275.28V278.078H360.499V275.28C360.499 275.207 360.485 275.135 360.457 275.068C360.429 275.001 360.389 274.939 360.337 274.888C360.286 274.836 360.226 274.796 360.159 274.768C360.092 274.74 360.02 274.725 359.948 274.725H346.731C346.659 274.725 346.587 274.74 346.521 274.768C346.454 274.796 346.393 274.836 346.342 274.888C346.291 274.939 346.25 275.001 346.223 275.068C346.195 275.135 346.181 275.207 346.181 275.28V278.078H337.92V275.28C337.92 275.207 337.906 275.135 337.878 275.068C337.851 275.001 337.81 274.939 337.759 274.888C337.708 274.836 337.647 274.796 337.58 274.768C337.513 274.74 337.442 274.725 337.37 274.725H324.153C324.081 274.725 324.009 274.74 323.942 274.768C323.875 274.796 323.815 274.836 323.763 274.888C323.712 274.939 323.672 275.001 323.644 275.068C323.616 275.135 323.602 275.207 323.602 275.28V278.078H315.342V275.28C315.342 275.207 315.327 275.135 315.3 275.068C315.272 275.001 315.231 274.939 315.18 274.888C315.129 274.836 315.069 274.796 315.002 274.768C314.935 274.74 314.863 274.725 314.791 274.725H301.574C301.502 274.725 301.43 274.74 301.363 274.768C301.297 274.796 301.236 274.836 301.185 274.888C301.134 274.939 301.093 275.001 301.065 275.068C301.038 275.135 301.024 275.207 301.024 275.28V278.078H292.763V275.28C292.763 275.207 292.749 275.135 292.721 275.068C292.693 275.001 292.653 274.939 292.602 274.888C292.551 274.836 292.49 274.796 292.423 274.768C292.356 274.74 292.285 274.725 292.212 274.725H188.681C188.609 274.725 188.537 274.74 188.471 274.768C188.404 274.796 188.343 274.836 188.292 274.888C188.241 274.939 188.2 275.001 188.173 275.068C188.145 275.135 188.131 275.207 188.131 275.28V278.078H179.87V275.28C179.87 275.207 179.856 275.135 179.828 275.068C179.801 275.001 179.76 274.939 179.709 274.888C179.658 274.836 179.597 274.796 179.53 274.768C179.463 274.74 179.392 274.725 179.319 274.725H166.103C166.03 274.725 165.959 274.74 165.892 274.768C165.825 274.796 165.765 274.836 165.713 274.888C165.662 274.939 165.622 275.001 165.594 275.068C165.566 275.135 165.552 275.207 165.552 275.28V278.078H157.292V275.28C157.292 275.207 157.277 275.135 157.25 275.068C157.222 275.001 157.181 274.939 157.13 274.888C157.079 274.836 157.019 274.796 156.952 274.768C156.885 274.74 156.813 274.725 156.741 274.725H143.524C143.452 274.725 143.38 274.74 143.313 274.768C143.247 274.796 143.186 274.836 143.135 274.888C143.084 274.939 143.043 275.001 143.015 275.068C142.988 275.135 142.973 275.207 142.973 275.28V278.078H134.713V275.28C134.713 275.207 134.699 275.135 134.671 275.068C134.643 275.001 134.603 274.939 134.552 274.888C134.501 274.836 134.44 274.796 134.373 274.768C134.306 274.74 134.235 274.725 134.162 274.725H120.946C120.873 274.725 120.802 274.74 120.735 274.768C120.668 274.796 120.607 274.836 120.556 274.888C120.505 274.939 120.464 275.001 120.437 275.068C120.409 275.135 120.395 275.207 120.395 275.28V278.078H112.134V275.28C112.134 275.207 112.12 275.135 112.093 275.068C112.065 275.001 112.024 274.939 111.973 274.888C111.922 274.836 111.861 274.796 111.794 274.768C111.728 274.74 111.656 274.725 111.584 274.725H98.367C98.2947 274.725 98.2231 274.74 98.1563 274.768C98.0895 274.796 98.0287 274.836 97.9776 274.888C97.9265 274.939 97.8859 275.001 97.8582 275.068C97.8306 275.135 97.8163 275.207 97.8163 275.28V278.078H89.5558V275.28C89.5558 275.207 89.5416 275.135 89.5139 275.068C89.4863 275.001 89.4457 274.939 89.3945 274.888C89.3434 274.836 89.2827 274.796 89.2159 274.768C89.1491 274.74 89.0775 274.725 89.0051 274.725H75.7884C75.6424 274.725 75.5023 274.784 75.399 274.888C75.2957 274.992 75.2377 275.133 75.2377 275.28V278.078H66.9773V275.28C66.9773 275.207 66.963 275.135 66.9354 275.068C66.9077 275.001 66.8671 274.939 66.816 274.888C66.7649 274.836 66.7042 274.796 66.6373 274.768C66.5705 274.74 66.4989 274.725 66.4266 274.725H53.2099C53.0638 274.725 52.9237 274.784 52.8205 274.888C52.7172 274.992 52.6592 275.133 52.6592 275.28V278.078H27.3271C23.8218 278.078 20.4601 279.48 17.9814 281.977C15.5028 284.474 14.1104 287.86 14.1104 291.391V297.41C14.1104 300.941 15.5028 304.327 17.9814 306.824C20.4601 309.32 23.8218 310.723 27.3271 310.723H466.783C470.289 310.723 473.65 309.32 476.129 306.824C478.608 304.327 480 300.941 480 297.41V291.391C480 289.642 479.658 287.911 478.994 286.296C478.33 284.681 477.356 283.213 476.129 281.977C474.902 280.741 473.445 279.76 471.841 279.091C470.238 278.422 468.519 278.078 466.783 278.078Z" fill="#3F3D56"/>
<path d="M178.426 164.724V180.154H170.89V144.16H178.426V158.491H194.111V144.16H201.647V180.154H194.111V164.724H178.426ZM235.111 166.308C235.111 170.787 233.868 174.304 231.381 176.858C228.895 179.396 225.455 180.665 221.061 180.665C216.752 180.665 213.372 179.387 210.92 176.833C208.467 174.278 207.241 170.77 207.241 166.308C207.241 161.863 208.467 158.372 210.92 155.835C213.372 153.28 216.804 152.003 221.214 152.003C225.727 152.003 229.167 153.238 231.535 155.707C233.919 158.159 235.111 161.693 235.111 166.308ZM227.601 166.308C227.601 163.021 227.064 160.637 225.991 159.156C224.918 157.674 223.36 156.933 221.317 156.933C219.137 156.933 217.502 157.717 216.412 159.283C215.322 160.833 214.777 163.175 214.777 166.308C214.777 169.391 215.305 171.741 216.361 173.359C217.434 174.96 218.975 175.76 220.984 175.76C223.198 175.76 224.85 174.977 225.94 173.41C227.047 171.826 227.601 169.459 227.601 166.308ZM248.011 142.245V180.154H240.833V142.245H248.011ZM261.78 180.665C259.107 180.665 257.02 179.941 255.522 178.493C254.023 177.029 253.274 174.977 253.274 172.337C253.274 169.476 254.202 167.305 256.058 165.823C257.931 164.341 260.639 163.566 264.182 163.498L270.134 163.396V161.991C270.134 160.186 269.819 158.849 269.188 157.981C268.558 157.095 267.528 156.652 266.097 156.652C264.769 156.652 263.79 156.959 263.16 157.572C262.547 158.168 262.163 159.164 262.01 160.561L254.525 160.203C255.462 154.736 259.422 152.003 266.404 152.003C269.895 152.003 272.586 152.863 274.476 154.583C276.367 156.303 277.312 158.747 277.312 161.914V171.979C277.312 173.529 277.482 174.602 277.823 175.198C278.18 175.777 278.768 176.067 279.585 176.067C280.13 176.067 280.658 176.015 281.169 175.913V179.796C280.284 180.018 279.526 180.179 278.896 180.282C278.266 180.401 277.491 180.46 276.571 180.46C274.766 180.46 273.429 180.018 272.56 179.132C271.709 178.246 271.198 176.944 271.028 175.224H270.874C269.87 177.029 268.609 178.391 267.094 179.311C265.578 180.213 263.807 180.665 261.78 180.665ZM270.134 167.356L266.455 167.407C264.769 167.492 263.586 167.671 262.904 167.943C262.206 168.25 261.67 168.71 261.295 169.323C260.937 169.936 260.758 170.753 260.758 171.775C260.758 173.086 261.057 174.066 261.653 174.713C262.266 175.343 263.075 175.658 264.079 175.658C265.203 175.658 266.234 175.351 267.17 174.738C268.09 174.125 268.814 173.282 269.342 172.209C269.87 171.119 270.134 169.97 270.134 168.761V167.356ZM293.303 144.16L292.486 169.272H286.61L285.793 144.16H293.303ZM293.15 173.257V180.154H285.793V173.257H293.15Z" fill="black"/>
</g>
</g>
<defs>
<clipPath id="clip0_113_144">
<rect width="1380" height="2400" fill="white" transform="translate(-118 -240)"/>
</clipPath>
<clipPath id="clip1_113_144">
<rect width="480" height="288" fill="white" transform="translate(0 38)"/>
</clipPath>
</defs>
</svg>
