<?xml version="1.0" standalone="no"?>
<!DOCTYPE svg PUBLIC "-//W3C//DTD SVG 1.0//EN" "http://www.w3.org/TR/2001/REC-SVG-20010904/DTD/svg10.dtd">
<svg xmlns="http://www.w3.org/2000/svg" xmlns:xlink="http://www.w3.org/1999/xlink" id="body_1" width="76" height="76">

<g transform="matrix(0.7916667 0 0 0.7916667 0 0)">
	<g transform="matrix(4 0 0 4 0 0)">
        <path d="M3 3L21 3L21 21L3 21L3 3zM19.525 16.707C 19.394 15.886001 18.859 15.196001 17.272999 14.552001C 16.720999 14.293001 16.107998 14.114001 15.923999 13.698001C 15.855999 13.450001 15.845999 13.316001 15.889998 13.169001C 16.002998 12.685 16.576998 12.540001 17.026999 12.674001C 17.319998 12.764001 17.589998 12.989 17.758999 13.35C 18.533998 12.843 18.533998 12.843 19.074999 12.5060005C 18.872 12.192 18.770998 12.055 18.636 11.92C 18.163 11.392 17.532999 11.122 16.51 11.145L16.51 11.145L15.982 11.212001C 15.475 11.336 14.991 11.607001 14.699 11.966001C 13.844 12.934001 14.091001 14.621 15.126 15.320001C 16.149 16.085001 17.647 16.253 17.838001 16.973001C 18.018002 17.851002 17.186 18.132002 16.363 18.031002C 15.7560005 17.895002 15.418001 17.592003 15.047001 17.029001L15.047001 17.029001L13.675001 17.817001C 13.832001 18.176 14.012001 18.334002 14.2820015 18.649002C 15.587002 19.965002 18.850002 19.898003 19.435001 17.895002C 19.456001 17.828003 19.615002 17.367002 19.491001 16.658003L19.491001 16.658003L19.525002 16.707003zM12.788 11.273001L11.102 11.273001C 11.102 12.726001 11.095 14.1710005 11.095 15.627001C 11.095 16.551 11.142 17.399 10.991 17.66C 10.744 18.177 10.1050005 18.111 9.816 18.019C 9.519 17.873 9.368 17.669998 9.193 17.377998C 9.146 17.3 9.111 17.231998 9.098 17.231998L9.098 17.231998L7.7299995 18.075998C 7.9589996 18.548998 8.292999 18.954998 8.724 19.212997C 9.365 19.595997 10.226 19.719997 11.128 19.517998C 11.716001 19.347998 12.223001 18.998999 12.486 18.458998C 12.87 17.761997 12.788 16.905998 12.785 15.949998C 12.793 14.408998 12.785 12.866998 12.785 11.314998L12.785 11.314998L12.788 11.272998z" stroke="none" fill="#000000" fill-rule="nonzero" />
	</g>
</g>
</svg>