<?xml version="1.0" standalone="no"?>
<!DOCTYPE svg PUBLIC "-//W3C//DTD SVG 1.0//EN" "http://www.w3.org/TR/2001/REC-SVG-20010904/DTD/svg10.dtd">
<svg xmlns="http://www.w3.org/2000/svg" xmlns:xlink="http://www.w3.org/1999/xlink" id="body_1" width="48" height="48">

<g transform="matrix(2 0 0 2 0 0)">
    <path d="M20 3L4 3C 3.4477153 3 3 3.4477153 3 4L3 4L3 20C 3 20.552284 3.4477153 21 4 21L4 21L20 21C 20.552284 21 21 20.552284 21 20L21 20L21 4C 21 3.4477153 20.552284 3 20 3zM8.339 18.337L5.667 18.337L5.667 9.747L8.339 9.747L8.339 18.337zM7.003 8.574C 6.4498253 8.574191 5.938589 8.279186 5.6619473 7.8001547C 5.3853045 7.3211236 5.3853045 6.7308774 5.6619473 6.2518463C 5.938589 5.7728148 6.4498253 5.47781 7.003 5.4780006C 7.8577275 5.478296 8.550466 6.1712723 8.550466 7.0260005C 8.550466 7.8807282 7.8577275 8.573706 7.003 8.574zM18.338 18.337L15.669 18.337L15.669 14.16C 15.669 13.164 15.651 11.882999 14.281 11.882999C 12.891 11.882999 12.68 12.969 12.68 14.089999L12.68 14.089999L12.68 18.338L10.0130005 18.338L10.0130005 9.747999L12.573 9.747999L12.573 10.921999L12.61 10.921999C 12.964999 10.246999 13.837 9.534999 15.134 9.534999C 17.838 9.534999 18.337 11.312999 18.337 13.626999L18.337 13.626999L18.337 18.336998z" stroke="none" fill="#000000" fill-rule="nonzero" />
</g>
</svg>